<?xml version="1.0" encoding="utf-8"?>
<!-- Generator: Adobe Illustrator 23.0.1, SVG Export Plug-In . SVG Version: 6.00 Build 0)  -->
<svg version="1.1" id="Layer_1" xmlns="http://www.w3.org/2000/svg" xmlns:xlink="http://www.w3.org/1999/xlink" x="0px" y="0px"
	 viewBox="0 0 588.3 56.5" style="enable-background:new 0 0 588.3 56.5;" xml:space="preserve">
<g>
	<path d="M318.1,52.2c-0.1-0.3-3.4-3.4-4.5-4.3c-0.3-0.3-0.3-0.7-0.3-0.7V31.8l0.1-0.1c4.6-3.9,1.4-7.1,1.4-7.1
		c-3.2,3.1-11.5-1.1-13.8-2c-2.4-0.8-11.6-3.2-15.1,2.9s0.8,9.5,0.8,9.5c0.8-4.2,4.9-2.7,4.9-2.7s2.9,1.1,5.4,1.7
		c0.4,0.1,1.1,0.3,2,0.3v11.7c-1,0.4-3.4,1.4-8.4,1.1c-6.6-0.4-11.2-8.9-11.2-18.4c0-9.6,4.5-18.4,14.4-18.4c2.1,0,4.1,0.4,5.7,1
		c2.1,0.8,6,2.9,9.2,7.7c0,0,4.5-0.8,3.2-3.5c-1.4-2.7-6.4-12.3-6.4-12.3s-0.6-1-2,0c-1,0.6-2.1,1.4-2.7,1.7c-0.3,0.1-0.6,0-0.6,0
		c-0.8-0.4-3.4-1.4-10.2-1c0,0-25.3,1.7-25.3,25c0,22.6,20.4,25.6,25.3,25.6s9.2-1.1,9.2-1.1s18,0,18.4,0
		C318.7,53.2,318.3,52.5,318.1,52.2z"/>
	<path d="M429.6,51.1l-4.8-3.2l0,0c-0.1-0.1-0.3-0.3-0.3-0.3l-11-38l0,0V9.5c0.1-0.4,1.8-1.8,2.7-2.2c0,0,0.8-0.6,0.8-1.3
		s-0.4-1-0.4-1H389c0,0-0.4,0.3-0.4,1s0.8,1.1,0.8,1.1l2.1,1.4l0,0l0,0l0.4,0.3c0.1,0.1,0.3,0.6,0.1,1l0,0l-12.3,37.3
		c-0.1,0.7-0.6,1-0.6,1l-5.4,3.1c0,0-0.8,0.6-0.8,1.1c0,0.7,0.4,1,0.4,1h19.3c0,0,0.4-0.3,0.4-1c0-0.7-0.8-1.1-0.8-1.1l-4.2-2.9l0,0
		l-0.1-0.1c-0.3-0.8,0.8-4.5,0.8-4.5l0,0l1.7-5.3c0.1,2.8,1.8,5.2,4.9,4.9c0,0,1.1-6.3,8.1-4.1c5.2,1.7,5.9,6.3,5.9,8.7
		c0,0,0,0.3-0.3,0.4l-4.2,2.8c0,0-0.8,0.6-0.8,1.1c0,0.7,0.4,1,0.4,1H430c0,0,0.4-0.3,0.4-1C430.5,51.7,429.6,51.1,429.6,51.1z
		 M397.2,31.1c-2.7,0.1-4.5,1.3-5.6,2.7l5.7-18l0.1-0.3l0,0c0.1-0.6,0.6-1.3,0.6-1.4c1-1.4,1.7-0.1,2,0.4l0.1,0.4l0.4,1.3l0,0
		l5.6,18.9C403.5,32.7,400.4,30.9,397.2,31.1z"/>
	<path d="M482.1,5h-15.1c0,0-0.4,0.3-0.4,1s0.8,1.1,0.8,1.1l3.2,2.2c0,0,0.4,0.4,0.4,0.8v22.5l-15.4-20.1l0,0c0,0-4.2-6-4.8-6.8
		S449.5,5,449.5,5c-1.3,0-17.9,0-17.9,0s-0.4,0.3-0.4,1s0.8,1.1,0.8,1.1l3.2,2.2c0,0,0.4,0.4,0.4,0.8V48c0,0,0,0.1-0.1,0.3l0,0
		l-3.8,2.8c0,0-0.8,0.6-0.8,1.1c0,0.7,0.4,1,0.4,1h16.1c0,0,0.4-0.3,0.4-1s-0.8-1.1-0.8-1.1l-4.1-2.9c-0.1-0.1-0.1-0.3-0.1-0.3V20.7
		l23.5,30.5c0,0,1.5,2.2,5,2.2h7.1V10c0-0.4,0.4-0.8,0.4-0.8L482,7c0,0,0.8-0.6,0.8-1.1C482.7,5.3,482.1,5,482.1,5z"/>
	<path d="M512.3,5h-27.8c0,0-0.4,0.3-0.4,1s0.8,1.1,0.8,1.1l3.2,2.2c0.3,0.1,0.4,0.4,0.4,0.7v37.6c0,0,0,0.6-0.3,0.8l-3.9,2.7
		c0,0-0.8,0.6-0.8,1.1c0,0.7,0.4,1,0.4,1h20h7.4c0,0,25.3,0,25.3-24.4S512.3,5,512.3,5z M507,46.5c-0.8-0.1-2.2-0.3-3.1-0.6V12.1
		c0.8-0.3,2.2-0.6,3.2-0.6c1.5-0.1,13-0.7,13,17.2C520.1,47.8,507,46.5,507,46.5z"/>
	<path d="M585.5,32.8c-1.1-0.3-1.7,1.4-1.7,1.4c-8.9,13-19.4,12.4-19.4,12.4h-3.2c0,0-2.9-0.3-4.1-0.7V33c0-1.8,1.1-3.6,4.3-4.2
		c3.4-0.6,4.9,2,7.1,3.1c2.2,1.1,6.4,0.6,8-3.8c1.5-4.3-0.6-6.8-0.8-7c-0.1,0-0.1,0-0.1,0c0.4,0.3-1.1,3.8-3.9,0.8
		c-2.8-2.9-5.9-2.7-5.9-2.7c-5.7,0-8,4.2-8.7,6.7V12l0,0c0,0,3.4-0.7,6.6-0.7h2.5c2.2,0.1,4.3,0.6,7.7,3.1c1.3,1.1,2.7,2.5,3.9,4.3
		c0,0,4.5-1,3.2-3.5c-1.4-2.5-6.4-12.3-6.4-12.3s-0.6-1-2,0c-1.1,0.7-2.2,1.4-2.8,1.8c0,0-0.3,0.1-0.7,0.1h-31.4c0,0-0.4,0.3-0.4,1
		s0.8,1.1,0.8,1.1l3.2,2.2l0,0c0.3,0.1,0.4,0.4,0.4,0.7v37.9c0,0.1-0.1,0.3-0.3,0.4l0,0l-3.9,2.7c0,0-0.8,0.6-0.8,1.1
		c0,0.7,0.4,1,0.4,1h35.9c0,0,2.8,1.4,3.8,1.8c1,0.4,1.5-1.1,1.5-1.1l9.4-19.4C587.6,34.4,586.6,33.1,585.5,32.8z"/>
	<path d="M372.5,36.7l-0.3-0.4c-0.3-0.4-0.4-0.6-0.4-0.6l0,0c-1.1-1.4-2.9-2.4-5.7-2.9c0,0,2,2.8-2.7,3.9c-4.6,1.1-7.7-2.8-7.7-2.8
		s-2.2-3.5-4.9-3.2l0,0c8-1,18.2-3.9,18.3-13c0.1-13.8-22.8-12.9-22.8-12.9h-25.4c0,0-0.4,0.3-0.4,1s0.8,1.1,0.8,1.1l3.9,2.7l0,0
		l0.4,0.3c0.3,0.3,0.6,0.7,0.6,1.5v36c0,0,0,0.1-0.1,0.3l-4.8,3.4c0,0-0.8,0.6-0.8,1.1c0,0.7,0.4,1,0.4,1h25.7c0,0,0.4-0.3,0.4-1
		c0-0.7-0.8-1.1-0.8-1.1l-4.6-3.1c-0.1-0.1-0.1-0.4-0.1-0.4V31.4c1.1-0.1,4.1,0.3,6.3,7.4c2.8,8.8,5.7,15.2,14.4,15.2
		c7.3,0,10.5-4.5,11.3-8.1l0,0l0,0c0,0,0,0,0-0.1C374.7,41.3,373.5,38.3,372.5,36.7z M341.6,12.1c0.4-0.1,1.1-0.3,1.8-0.4
		c0.1,0,2.7-0.3,5,0.3c2.4,0.7,5.2,2.2,5.2,6.1c0,3.8-2,5.7-3.9,6.7c-3.8,1.4-8.1-0.1-8.1-0.1V12.1z"/>
</g>
<g>
	<path d="M134.8,51.9l-4.1-2.8c-0.6-0.4-0.7-0.7-0.7-0.8V12.9c0-1.4,0.4-2,0.6-2.2l0.3-0.1l0,0l0,0l3.9-2.7c0,0,0.8-0.6,0.8-1.1
		s-0.4-1-0.4-1h-25.8c0,0-0.4,0.3-0.4,1s0.8,1.1,0.8,1.1l3.9,2.7l0,0l0,0l0.4,0.3c0.3,0.3,0.6,0.7,0.6,1.5v35.9c0,0-0.1,0.6-0.7,0.8
		l0,0l-4.2,2.8c0,0-0.8,0.6-0.8,1.1c0,0.6,0.4,1,0.4,1h25.7c0,0,0.4-0.3,0.4-1C135.5,52.3,134.8,51.9,134.8,51.9z"/>
	<path d="M189.5,5.8h-15.1c0,0-0.4,0.3-0.4,1s0.8,1.1,0.8,1.1l3.2,2.2l0,0c0,0,0.4,0.4,0.4,0.8v22.5l-15.4-20.1l0,0
		c0,0-4.2-6-4.8-6.8c-0.6-0.8-1.5-0.7-1.5-0.7c-1.3,0-17.9,0-17.9,0s-0.4,0.3-0.4,1s0.8,1.1,0.8,1.1l3.2,2.2c0,0,0.4,0.4,0.4,0.8
		v37.7c0,0,0,0.4-0.1,0.4l0,0l-3.8,2.8c0,0-0.8,0.6-0.8,1.1c0,0.6,0.4,1,0.4,1h16.1c0,0,0.4-0.3,0.4-1c0-0.7-0.8-1.1-0.8-1.1
		l-4.1-2.9l0,0c-0.1-0.1-0.3-0.3-0.3-0.3V21.4l23.5,30.5c0,0,1.5,2.2,5,2.2h7.1V10.8c0-0.4,0.4-0.8,0.4-0.8l3.2-2.2
		c0,0,0.8-0.6,0.8-1.1S189.5,5.8,189.5,5.8z"/>
	<path d="M241.3,16.6c-2.2-3.6-5.2-6.3-7.8-8c-3.2-2.2-6.6-3.5-9.8-3.9c-0.3,0-0.4,0-0.4,0l0,0c-1.3-0.1-2.4-0.3-3.6-0.3
		C196.2,4.3,191.7,21,191,26.5l0,0c0,0-0.3,1.8-0.3,3.2l0,0c0,1.1,0,2.8,0.4,4.8l0,0c0.4,2.5,1.3,5.2,2.9,7.8
		c5.7,9.1,13,12.4,19.6,13.1l0,0c0,0,1.4,0.1,2.8,0.1l0,0c3.8,0,13.3-0.6,20.3-7.1l0,0l0,0l0,0C245.9,39.9,248,27.3,241.3,16.6z
		 M229,42.7c-2.2,2.8-5.2,3.4-6.3,3.4c-4.3,0.3-11.5-1-16.2-10.5c-7.5-14.9,2.7-21.4,2.7-21.4s9.2-7.4,18.4,8.7
		C233.3,33,231.2,39.3,229,42.7z"/>
	<path d="M104.2,51.9l-3.9-2.7c-0.4-0.3-0.6-0.8-0.6-1V11.1c0-0.4,0.1-0.8,0.3-1.1l3.1-2.1c0,0,0.8-0.6,0.8-1.1s-0.4-1-0.4-1H79.9
		c0,0-0.4,0.3-0.4,1s0.8,1.1,0.8,1.1l3.8,2.5c0,0,0.1,0.1,0.1,0.3v16.5c0,0-1.5-7.5-8.4-7.8c-6-0.1-7.8,3.6-8.1,4.6V10.7
		c0.1-0.4,0.4-0.7,0.4-0.7l3.2-2.2c0,0,0.8-0.6,0.8-1.1s-0.4-1-0.4-1H53.4c0,0-0.4,0.3-0.4,1s0.8,1.1,0.8,1.1L57,10
		c0,0,0.1,0.1,0.3,0.4v38c0,0.1,0,0.4-0.3,0.6l-3.8,2.9c0,0-0.8,0.6-0.8,1.1c0,0.6,0.4,1,0.4,1h19.6c0,0,0.4-0.3,0.4-1
		c0-0.7-0.8-1.1-0.8-1.1l-3.9-2.8c-0.3-0.1-0.3-0.3-0.3-0.4V29.1c1.3,3.9,5,4.2,5,4.2c-0.1-4.5,5.2-4.6,5.2-4.6c2,0,3.2,0.8,4.2,2
		c0.1,0.3,2.1,2.9,2.1,9.1v8.9c0,0,0,0.6-0.6,1l-3.8,2.5c0,0-0.8,0.6-0.8,1.1s0.4,1,0.4,1h24.9c0,0,0.4-0.3,0.4-1
		C104.8,52.6,104.2,51.9,104.2,51.9z"/>
	<path d="M48.6,40.4C40.5,47,33.4,48,31,48s-13-1-13-18.6c0-14.1,8.2-17.5,11.6-18.3C30.3,11,31.2,11,32,11c9.9,0,14.9,8.7,14.9,8.7
		s4.5-0.8,3.2-3.5S43.8,3.8,43.8,3.8s-0.7-0.8-2,0c-1,0.6-2,1.3-2.7,1.7l0,0c-0.3,0.1-0.7,0-0.7,0c-0.7-0.4-2.7-1.1-7.5-1.1l0,0
		c0,0-28.6-0.8-28.6,25.3s27.7,26,27.7,26s12.3,0.1,21.4-11.9L48.6,40.4z"/>
</g>
</svg>
